<?xml version="1.0" encoding="UTF-8"?>
<svg xmlns="http://www.w3.org/2000/svg" width="256" height="256" viewBox="0 0 1254 1254">
  <g transform="translate(0.000000,1254.000000) scale(0.100000,-0.100000)">
    <path d="M2945 7071 c-37 -16 -92 -87 -115 -147 -67 -178 -67 -494 1 -740 24
-89 21 -109 -5 -28 -10 31 -19 54 -21 52 -1 -1 -26 -54 -54 -116 -136 -298
-161 -491 -79 -608 45 -63 84 -85 163 -92 152 -12 416 79 620 213 79 52 86 60
81 84 -3 14 -11 65 -17 114 -15 104 -5 101 -174 57 -135 -35 -143 -36 -152
-13 -15 39 101 92 255 115 66 10 73 13 78 37 3 14 8 32 10 39 4 15 -1 21 -131
126 -110 88 -213 161 -221 154 -3 -3 13 -47 35 -99 22 -51 39 -94 37 -96 -7
-7 -125 178 -131 206 -9 41 9 71 43 71 49 0 187 -85 314 -194 42 -36 78 -66
81 -66 3 0 8 11 11 24 3 14 26 54 50 89 l44 64 -63 129 c-96 199 -186 329
-330 474 -108 110 -178 153 -254 157 -31 1 -65 -1 -76 -6z M4804 6710 c-239
-62 -580 -336 -677 -543 -26 -55 -69 -178 -64 -183 2 -2 45 15 96 37 192 82
396 122 434 85 23 -23 21 -48 -4 -80 -23 -29 -126 -105 -179 -131 -29 -14 -20
-2 50 70 l85 87 -55 -5 c-68 -6 -192 -49 -329 -114 l-103 -49 78 -48 c119 -73
243 -173 250 -201 8 -32 -1 -55 -21 -55 -9 0 -51 29 -95 64 -75 62 -217 153
-224 145 -7 -7 -9 -60 -8 -160 l2 -96 63 -89 c118 -168 297 -323 455 -397 57
-27 79 -31 148 -32 73 0 84 3 117 28 45 34 69 79 99 184 31 104 33 337 5 457
l-19 78 -55 -53 -56 -54 23 40 c13 22 38 63 55 90 140 225 216 454 219 655 1
125 -15 189 -58 235 -31 32 -88 55 -136 54 -14 0 -57 -9 -96 -19z M8610 6371
c0 -23 41 -275 45 -280 9 -8 5 28 -16 156 -18 114 -29 160 -29 124z M8480
6319 c-514 -237 -1591 -388 -2497 -350 -336 14 -812 56 -886 77 -13 4 -20 -3
-29 -26 -6 -18 -32 -75 -57 -127 l-47 -95 25 -92 c20 -77 24 -116 25 -247 l1
-156 139 -22 c448 -70 1011 -102 1456 -82 597 27 1062 98 1485 226 220 67 549
207 562 240 3 8 -14 147 -37 307 -24 161 -45 312 -47 336 -3 23 -10 42 -17 41
-6 0 -40 -14 -76 -30z M3755 6285 c-47 -26 -65 -46 -95 -105 -45 -90 -73 -232
-68 -347 4 -114 24 -165 77 -200 45 -30 151 -63 229 -70 l62 -6 0 121 c0 195
31 365 91 491 34 74 36 71 -61 102 -91 29 -196 35 -235 14z M8691 5834 c0 -11
3 -14 6 -6 3 7 2 16 -1 19 -3 4 -6 -2 -5 -13z" fill="#000000" stroke="#FFFFFF" stroke-width="95" stroke-linejoin="round"/>
    <path d="M6015 8576 c-678 -89 -1287 -476 -1678 -1066 -86 -130 -212 -387
-265 -541 -51 -146 -96 -330 -118 -479 -9 -63 -18 -121 -20 -128 -3 -9 -21
-11 -71 -6 -64 6 -92 1 -165 -30 -13 -6 -25 11 -61 88 -25 53 -48 96 -51 96
-3 0 16 -45 41 -100 l46 -99 -27 -32 c-15 -17 -39 -55 -53 -83 -14 -28 -27
-53 -29 -55 -2 -2 -30 19 -62 47 -148 128 -299 220 -345 208 -52 -13 -38 -78
40 -188 30 -43 56 -78 59 -78 2 0 -7 23 -22 52 -32 63 -56 129 -49 136 7 8
109 -62 210 -144 155 -126 145 -114 138 -160 l-5 -42 -77 -11 c-162 -24 -273
-74 -258 -116 8 -20 20 -19 157 18 52 14 111 27 130 29 l35 3 7 -85 c3 -47 11
-97 17 -112 11 -30 9 -33 -88 -98 -90 -60 -270 -144 -376 -175 -54 -16 -126
-29 -181 -32 -126 -8 -178 17 -240 115 -2 2 -33 -12 -71 -32 -289 -152 -414
-331 -363 -518 51 -181 339 -378 793 -542 624 -226 1429 -375 2377 -442 310
-21 1100 -30 1415 -15 921 43 1679 152 2346 335 607 167 1035 396 1145 614 25
50 29 68 29 142 0 105 -21 154 -108 247 -204 217 -746 445 -1389 582 l-130 28
7 -86 c4 -47 4 -83 1 -80 -3 3 -17 82 -30 175 -14 93 -34 225 -45 294 -11 69
-23 152 -26 184 -13 143 -63 359 -124 537 -163 472 -429 860 -792 1156 -275
224 -660 403 -1006 469 -115 22 -173 26 -353 29 -140 3 -250 -1 -315 -9z
m-1030 -1865 c75 -34 104 -91 112 -220 13 -203 -71 -470 -225 -714 -34 -54
-62 -101 -62 -105 0 -3 22 16 49 42 l49 49 12 -43 c39 -146 41 -342 5 -486
-41 -163 -99 -224 -211 -224 -184 0 -439 185 -628 456 l-43 61 -6 119 c-3 65
-3 127 1 137 6 15 19 10 100 -43 50 -32 119 -82 153 -110 33 -27 62 -50 64
-50 19 0 35 17 35 38 0 17 -14 38 -42 64 -48 45 -235 173 -267 183 -12 3 -21
10 -21 14 0 10 181 95 284 133 85 31 196 51 196 35 0 -5 -35 -43 -77 -83 -84
-80 -86 -92 -7 -43 78 50 144 109 150 135 17 66 -64 81 -221 40 -93 -23 -262
-87 -303 -113 -24 -15 -24 -14 -17 19 13 61 52 157 86 214 95 159 375 391 559
464 132 52 210 61 275 31z m3593 -438 c6 -43 28 -188 47 -323 19 -135 37 -255
40 -267 5 -20 -6 -28 -95 -73 -765 -384 -2104 -520 -3348 -340 -112 16 -207
32 -211 34 -4 3 -4 29 1 58 13 75 0 238 -27 345 l-23 92 33 63 c18 35 43 88
55 118 12 30 25 58 28 62 4 4 37 3 74 -2 746 -106 1661 -96 2379 25 380 64
754 165 959 259 30 14 60 25 66 25 5 1 15 -34 22 -76z m-4629 10 c62 -15 131
-39 131 -47 0 -2 -13 -32 -29 -68 -60 -133 -95 -328 -89 -504 l3 -107 -70 6
c-80 7 -183 39 -238 75 -30 20 -40 36 -54 81 -24 83 -20 215 10 333 29 110 64
177 113 214 59 45 93 48 223 17z" fill="#000000" stroke="#FFFFFF" stroke-width="95" stroke-linejoin="round"/>
  </g>
</svg>
